<?xml version="1.0" encoding="utf-8"?>
<!-- Generator: Adobe Illustrator 23.1.0, SVG Export Plug-In . SVG Version: 6.00 Build 0)  -->
<svg version="1.1" id="Layer_1" xmlns="http://www.w3.org/2000/svg" xmlns:xlink="http://www.w3.org/1999/xlink" x="0px" y="0px"
	 viewBox="0 0 512 512" style="enable-background:new 0 0 512 512;" xml:space="preserve">
<style type="text/css">
	.st0{fill:#216484;}
	.st1{fill:#FFFFFF;}
</style>
<path class="st0" d="M454,280.5c2-16.3,2-32.7,0-48.9c-1.8-14.1,5.1-27.9,17.5-35c8.8-5.1,17.5-10.2,26-15.3l-17.9-43.1
	c-9.6,2.4-19.4,5-29.2,7.6c-13.8,3.7-28.4-1.1-37.2-12.4c-10-12.9-21.7-24.5-34.6-34.6c-11.2-8.8-16.1-23.3-12.4-37.2
	c2.6-9.8,5.2-19.6,7.6-29.2l-43.1-17.9c-5.1,8.5-10.2,17.3-15.3,26c-7.1,12.4-20.9,19.3-35,17.5c-16.3-2-32.7-2-48.9,0
	c-14.1,1.8-27.9-5.1-35-17.5c-5.1-8.8-10.2-17.5-15.3-26l-43.1,17.9c2.4,9.6,5,19.5,7.6,29.2c3.7,13.8-1.1,28.4-12.4,37.2
	c-12.9,10-24.5,21.7-34.6,34.6c-8.8,11.2-23.3,16.1-37.2,12.4c-9.8-2.6-19.6-5.2-29.2-7.6l-17.9,43.1c8.5,5.1,17.3,10.3,26,15.3
	c12.4,7.1,19.3,20.9,17.5,35c-2,16.2-2,32.7,0,48.9c1.8,14.1-5.1,27.9-17.5,35c-8.8,5-17.5,10.2-26,15.3l17.9,43.1
	c9.6-2.4,19.4-5,29.2-7.6c13.8-3.7,28.4,1.1,37.2,12.4c10,12.9,21.7,24.5,34.6,34.6c11.2,8.8,16.1,23.3,12.4,37.2
	c-2.6,9.8-5.2,19.6-7.6,29.2l43.1,17.9c5.1-8.5,10.2-17.2,15.3-26c7.1-12.4,20.9-19.3,35-17.5c16.2,2,32.7,2,48.9,0
	c14.1-1.7,27.9,5.1,35,17.5c5,8.7,10.2,17.5,15.3,26l43.1-17.9c-2.4-9.6-4.9-19.4-7.6-29.2c-3.7-13.8,1.1-28.4,12.4-37.1
	c12.9-10,24.5-21.7,34.6-34.6c8.8-11.2,23.3-16.1,37.2-12.4c9.8,2.6,19.6,5.2,29.2,7.6l17.9-43.1c-8.5-5.1-17.3-10.3-26-15.3
	C459.1,308.4,452.2,294.6,454,280.5z"/>
<path class="st0" d="M496.4,295.7c-8.1-4.9-16.5-9.8-24.8-14.6c2-16.7,2-33.6,0-50.3c8.4-4.8,16.7-9.7,24.8-14.6
	c13.6-8.2,19.3-25.4,13.2-40.2c0,0,0,0,0,0l-17.8-42.9c-6.1-14.7-22.3-22.9-37.7-19.1c-9.2,2.3-18.5,4.7-27.9,7.2
	c-10.4-13.2-22.4-25.1-35.6-35.6c2.5-9.3,4.9-18.7,7.2-27.9c3.8-15.4-4.4-31.6-19.1-37.7L335.9,2.4c-14.7-6.1-32-0.4-40.2,13.2
	c-4.9,8.1-9.8,16.5-14.6,24.8c-16.7-2-33.6-2-50.3,0c-4.8-8.4-9.7-16.7-14.6-24.8C208.1,2,190.8-3.7,176.1,2.4l-42.9,17.8
	c-14.7,6.1-22.9,22.3-19.1,37.7c2.3,9.2,4.7,18.5,7.2,27.9c-13.2,10.4-25.1,22.4-35.6,35.6c-9.4-2.5-18.7-4.9-27.9-7.2
	c-15.4-3.8-31.6,4.4-37.7,19.1L2.4,176.1c-6.1,14.7-0.4,32,13.2,40.2c8.1,4.9,16.5,9.8,24.8,14.6c-2,16.7-2,33.6,0,50.3
	c-8.4,4.8-16.7,9.7-24.8,14.6C2,303.9-3.7,321.2,2.4,335.9l17.8,42.9c6.1,14.7,22.3,22.9,37.7,19.1c9.2-2.3,18.5-4.7,27.9-7.2
	c10.4,13.2,22.4,25.1,35.6,35.6c-2.5,9.3-4.9,18.7-7.2,27.9c-3.8,15.4,4.4,31.6,19.1,37.7l42.9,17.8c4,1.6,8.2,2.4,12.3,2.4
	c11.1,0,21.9-5.7,27.9-15.6c4.8-8,9.7-16.4,14.6-24.8c16.7,2,33.6,2,50.3,0c4.8,8.3,9.7,16.7,14.6,24.8
	c8.2,13.6,25.4,19.3,40.2,13.2l42.9-17.8c14.7-6.1,22.9-22.3,19.1-37.7c-2.3-9.1-4.7-18.5-7.2-27.9c13.2-10.4,25.1-22.4,35.6-35.6
	c9.3,2.5,18.7,4.9,27.9,7.2c15.4,3.8,31.6-4.4,37.7-19.1l17.8-42.9C515.7,321.2,510,303.9,496.4,295.7z M460.6,363.8
	c-8.8-2.2-17.8-4.5-26.7-6.9c-12.6-3.4-26,1-34,11.3c-9.2,11.8-19.9,22.5-31.6,31.7c-10.3,8-14.7,21.3-11.3,34
	c2.4,9,4.8,18,6.9,26.7l-39.4,16.3c-4.7-7.8-9.4-15.8-14-23.8c-6.5-11.3-19.1-17.6-32-16c-14.8,1.8-29.9,1.8-44.8,0
	c-13-1.6-25.5,4.7-32,16c-4.6,8.1-9.3,16.1-14,23.8l-39.4-16.3c2.2-8.8,4.5-17.8,6.9-26.7c3.4-12.6-1-26-11.3-34
	c-11.8-9.2-22.5-19.8-31.7-31.6c-8-10.3-21.3-14.7-34-11.3c-8.9,2.4-17.9,4.7-26.7,6.9l-16.3-39.4c7.8-4.7,15.8-9.4,23.8-14
	c11.3-6.5,17.6-19.1,16-32c-1.8-14.8-1.8-29.9,0-44.8c1.6-12.9-4.7-25.5-16-32c-8-4.6-16-9.3-23.8-14l16.3-39.4
	c8.8,2.2,17.8,4.5,26.7,6.9c12.6,3.4,26-1,34-11.3c9.2-11.8,19.8-22.5,31.6-31.7c10.3-8,14.7-21.3,11.3-34
	c-2.4-8.9-4.7-17.9-6.9-26.7l39.4-16.3c4.7,7.8,9.4,15.8,14,23.8c6.5,11.3,19.1,17.6,32,16c14.8-1.8,29.9-1.8,44.8,0
	c12.9,1.6,25.5-4.7,32-16c4.6-8,9.3-16,14-23.8l39.4,16.3c-2.2,8.8-4.5,17.8-6.9,26.7c-3.4,12.6,1,26,11.3,34
	c11.8,9.2,22.5,19.8,31.7,31.6c8,10.3,21.3,14.7,34,11.3c8.9-2.4,17.9-4.7,26.7-6.9l16.3,39.4c-7.8,4.7-15.8,9.4-23.8,14
	c-11.3,6.5-17.6,19.1-16,32c1.8,14.8,1.8,29.9,0,44.8c-1.6,12.9,4.7,25.5,16,32c8,4.6,16,9.3,23.8,14L460.6,363.8z"/>
<circle class="st1" cx="256" cy="256" r="101.9"/>
<g>
	<g>
		<path class="st0" d="M364.9,210.9C364.9,210.9,364.9,210.9,364.9,210.9c-24.9-60.1-94-88.7-154-63.8c-60.1,24.9-88.7,94-63.8,154
			c12,29.1,34.7,51.8,63.8,63.8c14.5,6,29.8,9,45.1,9s30.6-3,45.1-9C361.2,340,389.8,270.9,364.9,210.9z M287.9,332.9
			c-20.6,8.5-43.2,8.5-63.8,0c-20.6-8.5-36.6-24.5-45.1-45.1c-17.6-42.4,2.6-91.3,45.1-108.8c10.4-4.3,21.2-6.3,31.8-6.3
			c32.7,0,63.8,19.4,77.1,51.4C350.5,266.5,330.3,315.4,287.9,332.9z"/>
	</g>
</g>
</svg>
