<?xml version="1.0" encoding="utf-8"?>
<!-- Generator: Adobe Illustrator 23.1.0, SVG Export Plug-In . SVG Version: 6.00 Build 0)  -->
<svg version="1.1" id="Capa_1" xmlns="http://www.w3.org/2000/svg" xmlns:xlink="http://www.w3.org/1999/xlink" x="0px" y="0px"
	 viewBox="0 0 512 512" style="enable-background:new 0 0 512 512;" xml:space="preserve">
<style type="text/css">
	.st0{fill:#D3E0E9;}
</style>
<path class="st0" d="M145.1,108H287c11,0,20,9,20,20s-9,20-20,20H145.1c-11,0-20-9-20-20S134,108,145.1,108z M145.1,228H287
	c11,0,20-9,20-20s-9-20-20-20H145.1c-11,0-20,9-20,20S134,228,145.1,228z M226,268c-11,0-20,9-20,20s9,20,20,20h61c11,0,20-9,20-20
	s-9-20-20-20H226z M64,371c-11,0-20-9-20-20V80c0-44.1,35.9-80,80-80l184,0c44.1,0,80,35.9,80,79.9l0,0c44.1,0,80,35.9,80,80v272
	c0,44.1-35.9,80-80,80H194c-44.1,0-80-35.9-80-80v-0.6c-39.4-4.9-70-38.7-70-79.4c0-11,9-20,20-20s20,9,20,20c0,22.1,17.9,40,40,40
	l184,0h0c10.7,0,20.7-4.2,28.3-11.7c7.6-7.6,11.7-17.6,11.7-28.3l0-272c0-22.1-17.9-40-40-40H124C101.9,40,84,58,84,80v271
	C84,362,75,371,64,371z M308,432L308,432l-154,0c0,22,18,40,40,40h194c22.1,0,40-17.9,40-40v-272c0-22.1-17.9-40-40-40V352
	c0,21.4-8.3,41.5-23.4,56.6C349.5,423.7,329.4,432,308,432z"/>
</svg>
