<?xml version="1.0" encoding="utf-8"?>
<!-- Generator: Adobe Illustrator 23.1.0, SVG Export Plug-In . SVG Version: 6.00 Build 0)  -->
<svg version="1.1" id="Layer_1" xmlns="http://www.w3.org/2000/svg" xmlns:xlink="http://www.w3.org/1999/xlink" x="0px" y="0px"
	 viewBox="0 0 512 512" style="enable-background:new 0 0 512 512;" xml:space="preserve">
<style type="text/css">
	.st0{fill:#216484;}
	.st1{fill:#FFFFFF;}
</style>
<path class="st0" d="M498.3,236c-8-1.1-16.2-2.2-24.2-3.3c-16.2-2-29.3-13.5-33.7-29.3c-4.2-14.9-10.2-29.3-17.8-42.8
	c-8-14.2-6.9-31.5,3.1-44.4c5.1-6.4,10-13.1,14.9-19.5l-25.3-25.3c-6.4,4.9-13.1,9.8-19.5,14.9c-12.9,10-30.4,11.1-44.4,3.1
	c-13.5-7.8-28-13.8-42.8-17.8C293,67.3,281.5,54,279.3,37.8c-1.1-8.2-2.2-16.2-3.3-24.2h-35.7c-1.1,8-2.2,16.2-3.3,24.2
	c-2,16.2-13.5,29.3-29.3,33.7c-14.9,4.2-29.3,10.2-42.8,17.8c-14.2,8-31.5,6.9-44.4-3.1c-6.4-4.9-13.1-10-19.5-14.9L75.5,96.6
	c4.9,6.4,9.8,13.1,14.9,19.5c10,12.9,11.1,30.4,3.1,44.4c-7.8,13.5-13.8,28-17.8,42.8c-4.2,15.5-17.5,27.1-33.7,29.1
	c-8.2,1.1-16.2,2.2-24.2,3.3v35.7c8,1.1,16.2,2.2,24.2,3.3c16.2,2,29.3,13.5,33.7,29.1c4.2,14.9,10.2,29.3,17.8,42.8
	c8,14.2,6.9,31.5-3.1,44.4c-5.1,6.4-10,13.1-14.9,19.5l25.3,25.3c6.4-4.9,13.1-9.8,19.5-14.9c12.9-10,30.4-11.1,44.4-3.1
	c13.5,7.8,28,13.8,42.8,17.8c15.5,4.2,27.1,17.5,29.1,33.7c1.1,8.2,2.2,16.2,3.3,24.2h35.7c1.1-8,2.2-16.2,3.3-24.2
	c2-16.2,13.5-29.3,29.3-33.7c14.9-4.2,29.3-10.2,42.8-17.8c14.2-8,31.5-6.9,44.4,3.1c6.4,5.1,13.1,10,19.5,14.9l25.3-25.3
	c-4.9-6.4-9.8-13.1-14.9-19.5c-10-12.9-11.1-30.4-3.1-44.4c7.8-13.5,13.8-28,17.8-42.8c4.2-15.5,17.5-27.1,33.7-29.1
	c8.2-1.1,16.2-2.2,24.2-3.3l0,0V236H498.3z"/>
<path class="st0" d="M481.8,198.5c-7.9-1.2-15.8-2.4-23.8-3.3c-4.1-13.6-9.5-26.6-16.1-39c4.9-6.5,9.8-13,14.6-19.3
	c10.4-14.2,8.9-34.1-3.5-46.5l-31.1-31.1c-12.4-12.4-32.5-14-46.5-3.5c-6.3,4.7-12.8,9.6-19.3,14.6c-12.4-6.7-25.6-12.2-39-16.1
	c-1-8.1-2.2-16.1-3.3-23.8C311,13,295.9,0,278.2,0H234c-17.5,0-32.7,13-35.4,30.3c-1.2,7.9-2.4,15.8-3.3,23.8
	c-13.6,4.1-26.6,9.5-39,16.1c-6.5-4.9-12.8-9.8-19.3-14.6c-14.2-10.4-34.1-8.9-46.5,3.5L59.4,90.4c-12.4,12.4-14,32.5-3.5,46.5
	c4.7,6.3,9.6,12.8,14.6,19.3c-6.7,12.4-12.2,25.6-16.1,39c-8.1,1-16.1,2.2-23.8,3.3c-17.3,2.6-30.3,17.7-30.3,35.4v44.1
	c0,17.5,13,32.7,30.3,35.4c7.9,1.2,15.8,2.4,23.8,3.3c4.1,13.6,9.5,26.6,16.1,39c-4.9,6.5-9.8,13-14.6,19.3
	c-10.4,14.2-8.9,34.1,3.5,46.5l31.1,31.1c12.4,12.4,32.5,14,46.5,3.5c6.3-4.7,12.8-9.6,19.3-14.6c12.4,6.7,25.6,12.2,39,16.1
	c1,8.1,2.2,16.1,3.3,23.8C201.2,499,216.3,512,234,512h44.1c17.5,0,32.7-13,35.4-30.3c1.2-7.9,2.4-15.8,3.3-23.8
	c13.6-4.1,26.6-9.5,39-16.1c6.5,4.9,12.8,9.8,19.3,14.6c14.2,10.4,34.1,8.9,46.5-3.5l31.1-31.1c12.4-12.4,14-32.5,3.5-46.5
	c-4.7-6.3-9.6-12.8-14.6-19.3c6.7-12.4,12.2-25.6,16.1-39c8.1-1,16.1-2.2,23.8-3.3c17.3-2.6,30.3-17.7,30.3-35.4v-44.1
	C512.3,216.2,499.1,201.1,481.8,198.5z M447.9,274.7c-14.4,1.8-26,12-29.9,25.8c-3.7,13.2-9.1,26-15.8,38c-7.1,12.6-6.1,28,2.8,39.4
	c4.5,5.7,8.9,11.6,13.2,17.3l-22.4,22.4c-5.7-4.3-11.6-8.7-17.3-13.2c-11.4-8.9-27-9.8-39.4-2.8c-12,6.9-24.8,12.2-38,15.8
	c-13.8,3.7-24,15.6-26,29.9c-1,7.3-2,14.4-3,21.5h-31.7c-1-7.1-2-14.4-3-21.5c-1.8-14.4-12-26-25.8-29.9c-13.2-3.7-26-9.1-38-15.8
	c-12.6-7.1-28-6.1-39.4,2.8c-5.7,4.5-11.6,8.9-17.3,13.2l-22.4-22.4c4.3-5.7,8.7-11.6,13.2-17.3c8.9-11.4,9.8-27,2.8-39.4
	c-6.9-12-12.2-24.8-15.8-38c-3.7-13.8-15.6-24-29.9-25.8c-7.3-1-14.4-2-21.5-3V240c7.1-1,14.4-2,21.5-3c14.4-1.8,26-12,29.9-25.8
	c3.7-13.2,9.1-26,15.8-38c7.1-12.6,6.1-28-2.8-39.4c-4.5-5.7-8.9-11.6-13.2-17.3l22.4-22.4c5.7,4.3,11.6,8.7,17.3,13.2
	c11.4,8.9,27,9.8,39.4,2.8c12-6.9,24.8-12.2,38-15.8c13.8-3.7,24-15.6,26-29.9c1-7.3,2-14.4,3-21.5h31.7c1,7.1,2,14.4,3,21.5
	c1.8,14.4,12,26,26,29.9c13.2,3.7,26,9.1,38,15.8c12.6,7.1,28,5.9,39.4-2.8c5.7-4.5,11.6-8.9,17.3-13.2l22.4,22.4
	c-4.3,5.7-8.7,11.6-13.2,17.3c-8.9,11.4-9.8,27-2.8,39.4c6.9,12,12.2,24.8,15.8,38c3.7,13.8,15.6,24,29.9,26c7.3,1,14.4,2,21.5,3
	V272l0,0C462.3,272.7,455,273.7,447.9,274.7z"/>
<circle class="st1" cx="256.1" cy="255.8" r="79.6"/>
<g>
	<g>
		<path class="st0" d="M256.1,164.4c-50.4,0-91.4,41-91.4,91.4s41,91.4,91.4,91.4s91.4-41,91.4-91.4S306.5,164.4,256.1,164.4z
			 M256.1,306.6c-28,0-50.8-22.8-50.8-50.8s22.8-50.8,50.8-50.8c28,0,50.8,22.8,50.8,50.8C306.9,283.8,284.1,306.6,256.1,306.6z"/>
	</g>
</g>
</svg>
